<svg xmlns="http://www.w3.org/2000/svg" version="1.1" xmlns:xlink="http://www.w3.org/1999/xlink" xmlns:svgjs="http://svgjs.dev/svgjs" width="100%" height="100%" viewBox="0 0 1000 600"><rect width="1000" height="600" x="0" y="0" fill="#ffb6c1"/><g><rect width="333.3333333333333" height="333.3333333333333" rx="13.333333333333334" ry="13.333333333333334" y="77.77780045403293" fill="#ffb6c1" transform="matrix(2.25000013732911,0,0,2.25000013732911,0,-250.00003738403575)" x="55.555564880371094"/><path d="M218.55855686342707 187.50941093693254L218.55855686342707 187.50941093693254Q218.55855686342707 190.98343908658833 216.92843596243475 194.83159334466856Q215.29831506144242 198.6797476027488 213.00011182397782 202.3408388066168Q210.67518529305434 206.0019300104848 207.78906959949418 208.96821558442164Q204.902953905934 211.9612244518174 202.20390126658603 213.8853015808575L202.20390126658603 213.8853015808575Q194.90844215230894 219.2566835660945 186.14320189779284 224.1737695625304Q177.4046849367356 229.09085555896624 169.12046396447954 232.3510973609509L169.12046396447954 232.3510973609509Q168.74633785605508 232.5381604151631 167.38344988965167 233.01917969742314Q166.04728521670714 233.50019897968318 165.64643581482377 233.12607287125869L165.64643581482377 233.12607287125869Q165.2723097063993 232.72522346937538 166.23434827091938 231.68301502447864Q167.19638683543943 230.61408328612296 167.784299291535 230.23995717769853L167.784299291535 230.23995717769853Q169.12046396447954 228.8770692112951 171.33849732156747 226.952992082255Q173.55653067865538 225.02891495321487 175.96162708995553 223.21173099801032Q178.36672350125568 221.39454704280578 180.77181991255583 219.65753296797786Q183.17691632385598 217.92051889315 185.1009934528961 216.95848032862992L185.1009934528961 216.95848032862992Q186.43715812584063 216.18350481832212 191.14045777460538 212.62930678828965Q195.870480716829 209.0751087582572 201.241862702066 204.34508581603356Q206.6399679807619 199.64178616726886 211.34326762952662 194.83159334466856Q216.07329057175025 190.02140052206826 217.22239219048254 186.94822177429583L217.22239219048254 186.94822177429583Q217.99736770079036 185.5853338078924 218.37149380921483 185.98618320977582L218.37149380921483 185.98618320977582Q218.55855686342707 186.17324626398803 218.55855686342707 186.7611587200836Q218.55855686342707 187.32234788272032 218.55855686342707 187.50941093693254ZM134.67413869596965 258.91405105908814L134.67413869596965 258.91405105908814Q141.8092580494934 259.8760896236082 148.54352800113384 261.69327357881275Q155.27779795277422 263.5104575340173 161.0500293398946 268.5344367042886L161.0500293398946 268.5344367042886Q167.784299291535 274.30666809140905 174.8926953515999 281.3081709776384Q182.0010914116648 288.3363971573266 187.98710914645628 295.070667108967L187.98710914645628 295.070667108967Q188.36123525488074 295.4715165108504 189.13621076518857 296.5137249557471Q189.9111862754964 297.58265669410275 189.51033687361306 298.1438458567394L189.51033687361306 298.1438458567394Q189.32327381940078 298.5446952586228 188.06727902683295 298.0636759763628Q186.8112842342651 297.58265669410275 186.43715812584063 297.18180729221933L186.43715812584063 297.18180729221933Q184.70014405101273 296.21976872769926 182.2950476397126 294.58964782670694Q179.88995122841243 292.9595269257146 177.4046849367356 291.0354497966746Q174.8926953515999 289.11137266763444 172.5944921141353 287.2941887124299Q170.26956558321183 285.4502814637664 168.74633785605508 283.92705373660965L168.74633785605508 283.92705373660965Q167.784299291535 282.9650151720896 163.642188805407 279.59788019626933Q159.50007831927894 276.2307452204492 153.91490998637082 272.46276084274564Q148.3297416534627 268.72149975850095 142.29027733175343 265.43453466305743Q136.2240897165853 262.1742928610728 131.413896893985 261.0251912423405L131.413896893985 261.0251912423405Q129.86394587336935 260.6243418404571 129.9708390472049 259.10111411330035Q130.05100892758156 257.55116309268465 130.26479527525268 256.40206147395236L130.26479527525268 256.40206147395236Q130.63892138367714 254.10385823648775 131.30700372014942 250.62983008683202Q131.97508605662168 247.15580193717628 132.66989168655283 243.52143402676714Q133.33797402302508 239.86034282289913 134.11294953333294 236.38631467324333Q134.86120175018186 232.93900981704647 135.6361772604897 230.42702023191075L135.6361772604897 230.42702023191075Q136.2240897165853 228.69000615708288 137.74731744374205 221.76867315123022Q139.2972684643577 214.84734014537756 140.84721948497335 206.37605611890925Q142.3704472121301 197.904772092441 143.14542272243793 190.02140052206826Q143.92039823274575 182.13802895169556 142.95835966822568 178.47693774782755L142.95835966822568 178.47693774782755Q142.55751026634235 176.73992367299968 143.14542272243793 176.73992367299968L143.14542272243793 176.73992367299968Q143.5195488308624 176.73992367299968 143.73333517853354 177.22094295525972Q143.92039823274575 177.70196223751975 144.29452434117022 178.10281163940306L144.29452434117022 178.10281163940306Q146.40566452442258 181.3630534413877 147.58148943661377 185.98618320977582Q148.73059105534605 190.60931297816384 149.02454728339387 195.68673873535303Q149.29178021798276 200.79088778600115 148.81076093572273 205.78814366281367Q148.3297416534627 210.8121228330851 147.36770308894265 214.4464907434942L147.36770308894265 214.4464907434942Q145.2565629056903 222.54364866153807 142.55751026634235 230.53391340574635Q139.88518092045328 238.4974548564957 136.78527887922198 246.5946127745395L136.78527887922198 246.5946127745395Q138.92314235593324 243.52143402676714 140.84721948497335 240.7154882135836Q142.77129661401347 237.93626569385899 144.29452434117022 235.42427610872332L144.29452434117022 235.42427610872332L144.48158739538246 234.46223754420325Q146.40566452442258 225.242701300886 149.2116103376061 215.80937870989763Q151.9908328573307 206.37605611890925 152.39168225921406 195.41950580076414L152.39168225921406 195.41950580076414Q152.76580836763853 194.45746723624407 152.95287142185077 194.45746723624407L152.95287142185077 194.45746723624407Q153.139934476063 194.45746723624407 153.35372082373414 194.83159334466856Q153.54078387794635 195.205719453093 153.7278469321586 195.60656885497636L153.7278469321586 195.60656885497636Q155.83898711541093 200.79088778600115 155.27779795277422 209.15527863863386Q154.68988549667864 217.5463927847255 152.95287142185077 226.57886597383052L152.95287142185077 226.57886597383052Q155.27779795277422 224.65478884479043 157.46910801640325 222.9177747699625Q159.6871413734912 221.18076069513464 162.38619401283913 219.47046991376564L162.38619401283913 219.47046991376564Q169.70837642057512 214.4464907434942 177.4046849367356 209.85008426856504Q185.1009934528961 205.22695450017696 192.31628268679654 200.41676167757672Q199.531571920697 195.60656885497636 205.67792941624182 190.60931297816384Q211.82428691178663 185.5853338078924 216.2603536259625 179.62603936655984L216.2603536259625 179.62603936655984Q216.84826608205807 179.06485020392313 217.0353291362703 179.43897631234762L217.0353291362703 179.43897631234762Q217.22239219048254 179.43897631234762 217.11549901664696 179.91999559460766Q217.0353291362703 180.4010148768677 217.0353291362703 180.5880779310799L217.0353291362703 180.5880779310799Q214.14921344271013 188.4714495014526 208.27008888175422 194.53763711662074Q202.41768761425718 200.60382473178893 194.9886120326856 205.78814366281367Q187.5862597445729 210.99918588729733 179.51582511998797 215.6223156556854Q171.41866720194412 220.21872213061457 164.12320808766702 225.42976435509823L164.12320808766702 225.42976435509823Q155.06401160510313 231.57612185064303 147.1806400347304 240.04740587711134Q139.2972684643577 248.51868990357966 134.67413869596965 258.91405105908814ZM143.92039823274575 257.738226146897L143.92039823274575 257.738226146897Q142.95835966822568 257.738226146897 141.32823876723336 257.65805626652025Q139.67139457278216 257.55116309268465 138.33522989983763 257.738226146897L138.33522989983763 257.738226146897Q139.11020541014545 256.21499841974014 140.1524138550422 254.66504739912452Q141.2213455933978 253.14181967196774 142.18338415791789 251.5918686513521L142.18338415791789 251.5918686513521Q143.33248577665017 250.04191763073644 144.9626066776425 248.22473367553184Q146.6194508720937 246.4075497203273 148.24957177308602 244.9644918735472Q149.87969267407834 243.52143402676714 151.1356874666462 242.82662839683596Q152.39168225921406 242.1585460603637 152.76580836763853 242.93352157067156L152.76580836763853 242.93352157067156Q152.95287142185077 243.12058462488378 152.47185213959074 243.89556013519163Q151.9908328573307 244.67053564549943 151.21585734702288 245.71274409039617Q150.46760513017395 246.7816758287518 149.7727995002428 247.63682121943626Q149.10471716377052 248.51868990357966 148.9176541095583 248.89281601200415L148.9176541095583 248.89281601200415Q146.80651392630594 251.5918686513521 145.8444753617859 253.62283895422777Q144.88243679726583 255.62708596364453 143.92039823274575 257.738226146897ZM217.596518298907 309.90209497865123L217.596518298907 309.90209497865123Q217.22239219048254 310.2762210870758 216.55430985401026 309.98226485902796Q215.886227517538 309.68830863098015 215.1112520072302 309.3141825225557L215.1112520072302 309.3141825225557Q209.52608367432205 306.80219293741993 204.6089976778862 303.16782502701085Q199.71863497490924 299.5067338231429 195.09550520652115 295.2577301631792Q190.4723754381331 291.0354497966746 185.9561388435806 286.51921320212205Q181.43990224902808 282.0029766075695 176.81677248064003 277.5669098933937L176.81677248064003 277.5669098933937Q173.55653067865538 274.49373114562127 169.89543947478737 271.20676605017775Q166.23434827091938 267.9465242481931 162.38619401283913 265.1673017284685Q158.5380397547589 262.361355915285 154.39592926863085 260.35710890586813Q150.25381878250283 258.3261386029925 146.0315384159981 257.738226146897L146.0315384159981 257.738226146897Q148.54352800113384 254.10385823648775 154.10197304058306 249.48072846809973Q159.6871413734912 244.85759869971164 166.23434827091938 240.42153198553584Q172.78155516834755 236.01218856481884 179.11497571810463 231.9769712525264Q185.47511956132055 227.91503064677508 189.51033687361306 225.42976435509823L189.51033687361306 225.42976435509823Q196.24460682525344 221.18076069513464 203.08576995072943 216.37056787253434Q209.90020978274654 211.56037504993404 215.67244116986686 204.63904204408138L215.67244116986686 204.63904204408138Q216.2603536259625 203.86406653377358 216.84826608205807 204.07785288144467L216.84826608205807 204.07785288144467Q216.84826608205807 204.45197898986916 216.63447973438696 204.74593521791692Q216.4474166801747 205.03989144596474 216.4474166801747 205.41401755438923L216.4474166801747 205.41401755438923Q215.48537811565467 210.22421037698953 210.7820784668899 215.5154224818498Q206.05205552466632 220.80663458671015 200.0927610833337 225.61682740931045Q194.13346664200108 230.42702023191075 187.98710914645628 234.5691307180388Q181.81402835745257 238.71124120416684 178.15293715358456 241.19650749584363L178.15293715358456 241.19650749584363Q174.70563229738767 243.52143402676714 170.9376479196841 245.6325742100195Q167.19638683543943 247.7437143932718 163.34823257735917 249.77468469614755Q159.50007831927894 251.7789317055643 155.9458802892465 253.40905260655663Q152.39168225921406 255.06589680100788 149.29178021798276 256.40206147395236L149.29178021798276 256.40206147395236Q154.31575938825418 256.40206147395236 160.7560731118468 259.4752402217248Q167.19638683543943 262.5484189694972 173.55653067865538 266.8775925098374Q179.88995122841243 271.20676605017775 185.28805650710834 275.9367889924014Q190.65943849234534 280.64008864116613 193.5455541859055 283.71326738893856L193.5455541859055 283.71326738893856Q199.71863497490924 290.44753734057895 205.78482259007737 296.8076811837949Q211.82428691178663 303.16782502701085 216.4474166801747 307.76423150194L216.4474166801747 307.76423150194Q217.99736770079036 309.3141825225557 217.596518298907 309.90209497865123ZM138.7093560082621 173.29261881680281L138.7093560082621 173.29261881680281Q141.40840864761003 182.51215506012 140.44637008309 192.42649693336838Q139.48433151856995 202.3408388066168 136.7051089988453 212.7361999621252Q133.8991631856618 223.10483782417472 130.45185832946493 233.90104838156654Q126.97783017980915 244.67053564549943 124.49256388813232 255.2529598552201L124.49256388813232 255.2529598552201Q122.94261286751667 261.98722980686046 122.08746747683217 269.2826889211376Q121.20559879268879 276.6048713288736 121.49955502073658 284.00722361698627Q121.79351124878438 291.409575905099 123.23656909556448 298.4378020847872Q124.67962694234457 305.4660282644754 127.9398687443292 311.42532270580807L127.9398687443292 311.42532270580807Q128.71484425463703 312.97527372642367 128.52778120042478 312.97527372642367L128.52778120042478 312.97527372642367Q128.12693179854145 312.97527372642367 127.75280569011697 312.57442432454036Q127.37867958169251 312.2002982161158 127.16489323402138 312.2002982161158L127.16489323402138 312.2002982161158Q121.79351124878438 305.84015437289986 119.28152166364868 298.4378020847872Q116.79625537197185 291.0354497966746 116.20834291587626 283.1520782263018Q115.62043045978066 275.2687066559291 116.68936219813628 267.17154873788525Q117.75829393649191 259.10111411330035 119.4685847178609 251.40480559713987L119.4685847178609 251.40480559713987Q121.98057430299662 240.8223813874192 125.24081610498126 230.3201270580752Q128.52778120042478 219.84459602219007 131.30700372014942 209.9302541489417Q134.11294953333294 200.01591227569335 136.03702666237305 190.79637603237606Q137.96110379141317 181.55011649559998 137.74731744374205 173.07883246913167L137.74731744374205 173.07883246913167Q137.74731744374205 171.92973085039938 137.96110379141317 171.92973085039938L137.96110379141317 171.92973085039938Q138.14816684562538 171.7426677961871 138.4421230736732 172.41075013265936Q138.7093560082621 173.07883246913167 138.7093560082621 173.29261881680281ZM229.72889352924332 316.0484524741961L229.72889352924332 316.0484524741961Q229.72889352924332 316.42257858262053 229.35476742081883 316.63636493029173Q228.9539180189355 316.82342798450395 228.57979191051103 317.01049103871617L228.57979191051103 317.01049103871617Q221.257609502775 319.70954367806405 214.44316967075792 319.41558745001635Q207.60200654528194 319.1216312219685 201.1616928216893 317.11738421255177Q194.7213790980967 315.086413909676 188.84225453714078 311.8261721076914Q182.96312997618486 308.53920701224786 177.7788110451601 305.2789652102632L177.7788110451601 305.2789652102632Q172.5944921141353 301.9920001148197 167.784299291535 297.76971974831497Q162.97410646893474 293.54743938181025 158.35097670054665 289.11137266763444Q153.7278469321586 284.67530595345863 149.2116103376061 280.4530255869539Q144.69537374305358 276.2307452204492 140.25930702887774 272.9437801250057L140.25930702887774 272.9437801250057L134.30001258754515 292.9595269257146Q133.8991631856618 293.9215654902347 133.6319302510729 294.69654100054254Q133.33797402302508 295.4715165108504 132.93712462114175 295.2577301631792L132.93712462114175 295.2577301631792Q132.5629985127173 295.070667108967 132.4561053388817 294.2155217182825Q132.37593545850504 293.33365303413916 132.37593545850504 292.3716144696191L132.37593545850504 292.3716144696191Q132.5629985127173 286.81316943016986 133.33797402302508 281.04093804304944Q134.11294953333294 275.2687066559291 135.26205115206523 269.4964752688087L135.26205115206523 269.4964752688087Q134.11294953333294 268.72149975850095 132.37593545850504 267.7594611939809Q130.63892138367714 266.7974226294608 129.0889703630615 265.83538406494074L129.0889703630615 265.83538406494074Q128.71484425463703 265.6483210107285 128.12693179854145 265.1673017284685Q127.56574263590474 264.68628244620845 127.75280569011697 264.28543304432515L127.75280569011697 264.28543304432515Q127.75280569011697 264.0983699901128 128.71484425463703 264.0983699901128L128.71484425463703 264.0983699901128Q135.6361772604897 264.68628244620845 142.29027733175343 268.61460658466535Q148.9176541095583 272.5696540165811 155.54503088736314 278.04792917565374Q162.19913095862688 283.52620433472623 168.93340091026732 289.8863481779423Q175.66767086190774 296.21976872769926 182.96312997618486 301.9920001148197L182.96312997618486 301.9920001148197Q192.209389512961 309.1271194683435 204.12797839562617 313.2692299544715Q216.07329057175025 317.3846171471406 228.3927288562988 315.8613894199839L228.3927288562988 315.8613894199839Q229.72889352924332 315.46054001810046 229.72889352924332 316.0484524741961ZM133.8991631856618 312.97527372642367L133.8991631856618 312.97527372642367Q133.52503707723733 312.97527372642367 132.7500615669295 312.57442432454036L132.7500615669295 312.57442432454036Q132.37593545850504 312.38736127032814 132.1888724042928 312.0132351619036L132.1888724042928 312.0132351619036Q129.6768828191571 309.1271194683435 128.23382497237702 306.6151298832077Q126.79076712559691 304.1298635915309 125.82872856107686 298.5446952586228L125.82872856107686 298.5446952586228Q125.4546024526524 296.43355507537046 125.34770927881682 293.14658997992694Q125.24081610498126 289.8863481779423 125.4546024526524 286.81316943016986Q125.64166550686463 283.71326738893856 126.12268478912465 281.6021272056862Q126.60370407138468 279.49098702243384 127.37867958169251 279.49098702243384L127.37867958169251 279.49098702243384Q127.56574263590474 279.49098702243384 127.85969886395253 280.4530255869539Q128.12693179854145 281.415064151474 128.34071814621257 282.67105894404176Q128.52778120042478 283.92705373660965 128.60795108080146 285.15632523571867Q128.71484425463703 286.41232002828644 128.71484425463703 286.81316943016986L128.71484425463703 286.81316943016986Q129.0889703630615 291.0354497966746 129.3829265911093 293.73450243602247Q129.6768828191571 296.43355507537046 130.05100892758156 298.5446952586228L130.05100892758156 298.5446952586228Q131.01304749210163 304.6910527541676 133.8991631856618 311.42532270580807L133.8991631856618 311.42532270580807Q134.11294953333294 311.8261721076914 134.1931194137096 312.38736127032814Q134.30001258754515 312.97527372642367 133.8991631856618 312.97527372642367ZM203.56678923298946 309.1271194683435L203.56678923298946 309.1271194683435Q204.902953905934 309.3141825225557 206.93392420880966 309.79520180481575Q208.93817121822647 310.2762210870758 210.11399613041763 310.6503471955002L210.11399613041763 310.6503471955002Q215.1112520072302 312.0132351619036 218.4783869830504 312.68131749837585Q221.8455219588706 313.3493998348481 226.46865172725867 313.53646288906043L226.46865172725867 313.53646288906043Q226.84277783568317 313.53646288906043 227.51086017215542 313.53646288906043Q228.17894250862767 313.53646288906043 228.17894250862767 313.93731229094374L228.17894250862767 313.93731229094374Q228.17894250862767 314.7122878012516 226.25486537958753 314.8993508554638L226.25486537958753 314.8993508554638Q223.95666214212295 315.27347696388824 222.21964806729508 315.27347696388824Q220.48263399246719 315.27347696388824 217.81030464657815 315.086413909676L217.81030464657815 315.086413909676Q216.2603536259625 314.8993508554638 214.14921344271013 314.4985014535804Q212.03807325945778 314.12437534515595 209.90020978274654 313.4562930086837Q207.78906959949418 312.78821067221145 205.9718856442896 312.0934050422803Q204.12797839562617 311.42532270580807 203.37972617877725 310.6503471955002L203.37972617877725 310.6503471955002Q202.6047506684694 309.90209497865123 202.79181372268167 309.3141825225557L202.79181372268167 309.3141825225557Q202.79181372268167 309.1271194683435 203.56678923298946 309.1271194683435ZM279.94196193849865 214.4464907434942L279.94196193849865 214.4464907434942Q277.2429092991507 224.84185189900265 273.3145851606938 236.01218856481884Q269.35953772877804 247.15580193717628 265.1372573622733 257.1770369842602L265.1372573622733 257.1770369842602Q264.9501943080611 257.55116309268465 264.17521879775325 258.99422093946475Q263.4002432874454 260.43727878624486 263.02611717902096 260.25021573203264L263.02611717902096 260.25021573203264Q262.4382047229253 260.25021573203264 262.5450978967609 258.6200948310403Q262.6252677771376 256.989973930048 262.81233083134975 256.40206147395236L262.81233083134975 256.40206147395236Q263.02611717902096 254.10385823648775 263.5873063416576 250.62983008683202Q264.17521879775325 247.15580193717628 264.8433011342255 243.52143402676714Q265.51138347069775 239.86034282289913 266.39325215484115 236.38631467324333Q267.2483975455257 232.93900981704647 268.0233730558335 230.42702023191075L268.0233730558335 230.42702023191075Q268.39749916425797 229.65204472160295 269.17247467456576 226.57886597383052Q269.94745018487356 223.50568722605814 270.8025955755581 219.17651368571782Q271.6844642597015 214.84734014537756 272.64650282422156 209.6362979208939Q273.6085413887416 204.45197898986916 274.3567936055905 199.45472311305664L274.3567936055905 199.45472311305664L272.0585903681259 198.86681065696106Q271.09655180360585 205.60108060860145 269.2793678484013 212.62930678828965Q267.4354605997379 219.65753296797786 265.21742724265 226.68575914766606Q263.02611717902096 233.6872620338954 260.8882537023097 240.90255126779587Q258.77711351905737 248.1178405016963 257.04009944422944 255.2529598552201L257.04009944422944 255.2529598552201Q255.5168717170727 261.98722980686046 254.7418962067649 269.2826889211376Q253.96692069645704 276.6048713288736 254.15398375066928 284.00722361698627Q254.3677700983404 291.409575905099 255.89099782549718 298.4378020847872Q257.4409488461128 305.4660282644754 260.5141275938852 311.42532270580807L260.5141275938852 311.42532270580807Q261.1020400499808 312.78821067221145 260.8882537023097 312.78821067221145L260.8882537023097 312.78821067221145Q260.5141275938852 312.78821067221145 260.32706453967296 312.57442432454036L260.32706453967296 312.57442432454036L259.92621513778965 312.2002982161158Q254.55483315255265 305.84015437289986 251.96267368704025 298.4378020847872Q249.34379092806898 291.0354497966746 248.6757085915967 283.1520782263018Q248.00762625512445 275.2687066559291 248.9696648196445 267.17154873788525Q249.93170338416456 259.10111411330035 251.66871745899246 251.40480559713987L251.66871745899246 251.40480559713987Q254.9289592609771 237.1612901835512 259.3650259751529 223.98670650831812Q263.7743693958699 210.8121228330851 266.8742714371012 198.0918351466532L266.8742714371012 198.0918351466532Q255.32980866286047 196.16775801761307 245.22840373539984 194.53763711662074Q235.1269988079392 192.90751621562842 226.46865172725867 194.64453029045634L226.46865172725867 194.64453029045634Q225.8807392711631 194.64453029045634 225.8807392711631 194.45746723624407L225.8807392711631 194.45746723624407Q225.8807392711631 194.0566178343607 226.17469549921088 193.97644795398404Q226.46865172725867 193.8695547801485 226.65571478147092 193.68249172593627L226.65571478147092 193.68249172593627Q233.2029216788991 189.83433746785605 240.60527396701175 189.43348806597268Q248.00762625512445 189.0593619575482 255.99789099933272 190.1282936959038Q263.98815574354103 191.17050214080055 272.35254659617374 192.80062304179287Q280.71693744880645 194.45746723624407 289.18822147527476 194.64453029045634L289.18822147527476 194.64453029045634Q294.37254040629955 194.83159334466856 300.06460191304325 193.76266160631295Q305.7299401263281 192.7204531614162 311.02115223118835 190.5024198043283Q316.31236433604863 188.2843864472404 320.64153787638895 184.62329524337238Q324.9707114167293 180.98892733296327 327.66976405607716 175.96494816269183L327.66976405607716 175.96494816269183Q328.0438901645016 175.00290959817175 328.444739566385 175.00290959817175L328.444739566385 175.00290959817175L328.444739566385 175.5908220542674L328.444739566385 175.96494816269183Q326.3068760896738 183.28713057042785 321.89753266895684 187.99043021919258Q317.4614659547809 192.7204531614162 311.7961277414962 195.60656885497636Q306.1040662347525 198.49268454853657 299.6637525111599 199.53489299343332Q293.22343878756726 200.60382473178893 287.0770812920224 200.41676167757672L287.0770812920224 200.41676167757672Q288.03911985654247 206.37605611890925 287.1572511723991 214.25942768928198Q286.30210578171466 222.14279925965465 284.56509170688673 230.23995717769853Q282.8280776320588 238.31039180228348 280.9040005030187 245.52568103618395Q278.97992337397864 252.74097027008438 277.83082175524635 257.1770369842602L277.83082175524635 257.1770369842602Q275.5326185177817 266.3965732275774 272.4327164765504 276.016958872778Q269.35953772877804 285.6373445179786 266.8742714371012 292.9595269257146L266.8742714371012 292.9595269257146Q266.4734220352178 293.9215654902347 265.9924027529578 294.69654100054254Q265.51138347069775 295.4715165108504 265.1372573622733 295.2577301631792L265.1372573622733 295.2577301631792Q264.73640796038995 295.070667108967 264.8433011342255 294.2155217182825Q264.9501943080611 293.33365303413916 264.9501943080611 292.3716144696191L264.9501943080611 292.3716144696191Q265.51138347069775 277.94103600181813 269.17247467456576 263.5104575340173Q272.8335658784338 249.07987906621636 277.0558462449385 234.46223754420325L277.0558462449385 234.46223754420325Q279.38077277586194 226.3918029196183 281.572082839491 218.1075819473622Q283.79011619657894 209.85008426856504 284.75215476109895 200.41676167757672L284.75215476109895 200.41676167757672Q283.79011619657894 200.22969862336444 283.1220338601066 200.22969862336444Q282.4539515236344 200.22969862336444 281.4919129591143 200.22969862336444L281.4919129591143 200.22969862336444Q281.4919129591143 204.07785288144467 281.1979567310665 207.7122207918538Q280.9040005030187 211.37331199572182 279.94196193849865 214.4464907434942ZM285.1530041629823 173.47968187101503L285.1530041629823 173.47968187101503Q292.6355263314716 174.4417204355351 300.33183484763214 175.00290959817175Q308.02814336379265 175.5908220542674 313.61331169670075 175.5908220542674L313.61331169670075 175.5908220542674Q315.5373888257409 175.5908220542674 315.5373888257409 176.17873451036297L315.5373888257409 176.17873451036297Q315.5373888257409 176.9269867272119 313.61331169670075 177.51489918330748L313.61331169670075 177.51489918330748Q303.80586299728793 181.3630534413877 292.92948255951944 180.98892733296327Q282.053102121751 180.5880779310799 270.90948874939363 178.85106385625204L270.90948874939363 178.85106385625204Q264.17521879775325 177.88902529173197 257.04009944422944 176.9269867272119Q249.93170338416456 175.96494816269183 241.6474824119085 176.9269867272119L241.6474824119085 176.9269867272119Q240.89923019505957 177.14077307488304 240.89923019505957 176.73992367299968L240.89923019505957 176.73992367299968Q240.89923019505957 176.3657975645752 241.27335630348404 176.17873451036297Q241.6474824119085 175.96494816269183 242.04833181379186 175.5908220542674L242.04833181379186 175.5908220542674Q245.70942301765987 172.8917694149194 251.48165440478022 172.03662402423492Q257.2538857919006 171.15475534009153 263.507136461281 171.26164851392707Q269.76038713066134 171.36854168776267 275.5326185177817 172.1167939046116Q281.3048499049021 172.8917694149194 285.1530041629823 173.47968187101503ZM256.2918472273805 179.43897631234762L256.2918472273805 179.43897631234762Q264.36228185196546 180.5880779310799 272.7266727045982 182.32509200590778Q281.09106355723094 184.06210608073567 289.00115842106254 186.17324626398803L289.00115842106254 186.17324626398803Q289.375284529487 186.54737237241247 290.63127932205487 186.8413286004603Q291.88727411462276 187.1352848285081 291.88727411462276 187.72319728460369L291.88727411462276 187.72319728460369Q291.88727411462276 188.09732339302812 290.71144920243154 188.2843864472404Q289.56234758369925 188.4714495014526 289.00115842106254 188.87229890333597L289.00115842106254 188.87229890333597Q287.2641443462347 189.2464250117604 284.67198488072233 189.2464250117604Q282.053102121751 189.2464250117604 279.2738796020264 189.16625513138374Q276.4946570823018 189.0593619575482 273.79560444295385 188.87229890333597Q271.09655180360585 188.68523584912376 269.17247467456576 188.2843864472404L269.17247467456576 188.2843864472404Q267.8363100016212 188.09732339302812 262.5450978967609 187.50941093693254Q257.2538857919006 186.94822177429583 250.89374194868464 186.7611587200836Q244.53359810546868 186.54737237241247 238.68119683797167 186.8413286004603Q232.80207227701572 187.1352848285081 230.3168059853389 188.4714495014526L230.3168059853389 188.4714495014526Q229.5418304750311 188.87229890333597 229.35476742081883 188.87229890333597L229.35476742081883 188.87229890333597L229.14098107314774 188.87229890333597Q229.14098107314774 188.09732339302812 229.91595658345554 187.32234788272032L229.91595658345554 187.32234788272032Q231.84003371249568 184.83708159104347 235.20716868831587 183.10006751621563Q238.57430366413607 181.3630534413877 242.23539486800408 180.4010148768677Q245.8964860718721 179.43897631234762 249.63774715611677 179.2519132581354Q253.40573153382036 179.06485020392313 256.2918472273805 179.43897631234762ZM262.6252677771376 298.5446952586228L262.6252677771376 298.5446952586228Q263.2131802332332 301.8049370606075 264.0683256239177 305.091902156051Q264.9501943080611 308.35214395803564 266.2863589810056 311.42532270580807L266.2863589810056 311.42532270580807Q267.0613344913134 312.97527372642367 266.4734220352178 312.97527372642367L266.4734220352178 312.97527372642367Q266.0992959267934 312.97527372642367 265.32432041648553 312.57442432454036L265.32432041648553 312.57442432454036Q264.9501943080611 312.38736127032814 264.73640796038995 312.0132351619036L264.73640796038995 312.0132351619036Q262.2511416687131 309.1271194683435 260.808083821933 306.6151298832077Q259.3650259751529 304.1298635915309 258.4029874106329 298.5446952586228L258.4029874106329 298.5446952586228Q258.0021380087495 296.43355507537046 257.92196812837284 293.14658997992694Q257.8150749545373 289.8863481779423 258.0021380087495 286.81316943016986Q258.2159243564206 283.71326738893856 258.5900504648451 281.6021272056862Q258.9641765732696 279.49098702243384 259.73915208357744 279.49098702243384L259.73915208357744 279.49098702243384Q259.92621513778965 279.49098702243384 260.2201713658374 280.4530255869539Q260.5141275938852 281.415064151474 260.70119064809745 282.67105894404176Q260.8882537023097 283.92705373660965 261.1020400499808 285.15632523571867Q261.28910310419303 286.41232002828644 261.28910310419303 286.81316943016986L261.28910310419303 286.81316943016986Q261.66322921261747 290.0734112321545 261.9571854406653 292.9595269257146Q262.2511416687131 295.8456426192748 262.6252677771376 298.5446952586228ZM318.423504519301 178.10281163940306L318.423504519301 178.10281163940306Q322.6725081792647 174.4417204355351 325.5586238728248 170.19271677557145L325.5586238728248 170.19271677557145Q325.93274998124923 169.44446455872253 326.3068760896738 169.44446455872253L326.3068760896738 169.44446455872253Q326.52066243734487 169.44446455872253 326.52066243734487 170.7806292316671L326.52066243734487 170.7806292316671Q326.52066243734487 171.5556047419749 326.3068760896738 172.1167939046116L326.3068760896738 172.1167939046116Q325.5586238728248 175.40375900005512 324.5965853083047 177.32783612909526Q323.63454674378465 179.2519132581354 319.9734555399167 181.95096589748334L319.9734555399167 181.95096589748334Q318.6105675735133 183.10006751621563 316.31236433604863 184.14227596111235Q314.01416109858405 185.21120769946796 311.8762976218728 185.98618320977582Q309.7651574386205 186.7611587200836 308.1350365376282 186.8413286004603Q306.5049156366359 186.94822177429583 306.3178525824236 186.17324626398803L306.3178525824236 186.17324626398803Q306.3178525824236 185.98618320977582 306.87904174506036 185.50516392751578Q307.46695420115594 185.0241446452557 308.3220995918404 184.4362321891601Q309.2039682759838 183.8750430265234 309.95222049283274 183.3940237442634Q310.72719600314053 182.91300446200336 311.12804540502395 182.69921811433227L311.12804540502395 182.69921811433227Q313.052122534064 181.7371795498122 314.86930648926864 180.5880779310799Q316.6864904444732 179.43897631234762 318.423504519301 178.10281163940306Z " fill="#f54257" transform="matrix(2.25000013732911,0,0,2.25000013732911,0,-250.00003738403575)"/><path d="MNaN 244.4444580078119 " fill="#a04ef6" transform="matrix(2.25000013732911,0,0,2.25000013732911,0,-250.00003738403575)"/></g></svg>